<svg id="Layer_1" data-name="Layer 1" xmlns="http://www.w3.org/2000/svg" xmlns:xlink="http://www.w3.org/1999/xlink" viewBox="0 0 194.45 169.85"><defs><style>.cls-1{fill:#cd6799;}.cls-2{isolation:isolate;}</style></defs><path class="cls-1" d="M187.4,83.7c-.3-.2-.2-.8.6-2.6a9.06,9.06,0,0,1,2.4-3,6.88,6.88,0,0,1,.2,1.3,4.36,4.36,0,0,1-3.2,4.3Zm-10.6,2.4a.88.88,0,0,1-.8.2c-.1-.1.1-.3.1-.3s1.7-1.8,2.4-2.7c.4-.5.9-1.1,1.3-1.7v.2c.1,2.2-2.1,3.7-3,4.3ZM163,79.6c-.8,1.9-2.5,6.9-3.5,6.6s-1.4-4-.2-7.7a16.48,16.48,0,0,1,2.7-5c1.2-1.4,2.6-1.8,3-1.3.5.8-1.5,6.1-2,7.4ZM146.4,90.9c-2.3,2.5-5.5,3.4-6.8,2.6-1.5-.9-.9-4.5,1.9-7.2a33.89,33.89,0,0,1,5.4-4c.3-.2.8-.5,1.4-.9a.31.31,0,0,1,.2-.1h0c.1-.1.2-.1.4-.2a10.41,10.41,0,0,1-2.5,9.8ZM199.5,73a15.94,15.94,0,0,0-7.2,1.7,17,17,0,0,1-1.6-3.7,10.5,10.5,0,0,1-.1-3.1c.2-1.3.9-3.2.9-3.4s-.2-.8-1.8-.8-3,.3-3.1.7a12.06,12.06,0,0,0-.7,2.4c-.3,1.4-3.2,6.6-4.8,9.3a12.72,12.72,0,0,1-1.1-2.7,10.5,10.5,0,0,1-.1-3.1c.2-1.3.9-3.2.9-3.4s-.2-.8-1.8-.8-3,.3-3.1.7-.3,1.4-.7,2.4S171,78.8,170,81c-.5,1.1-1,2.1-1.3,2.7h0l-.1.1a4.56,4.56,0,0,0-.4.8h0c-.2.4-.4.8-.6.8a5.62,5.62,0,0,1,0-2.5c.6-3,2-7.7,1.9-7.8s.3-.9-.9-1.3a1.41,1.41,0,0,0-1.6.3c-.1,0-.2.2-.2.2s1.3-5.2-2.4-5.2c-2.3,0-5.4,2.5-7,4.8-1,.5-3.1,1.7-5.3,2.9-.9.5-1.7,1-2.6,1.4l-.2-.2c-4.4-4.7-12.6-8.1-12.3-14.4.1-2.3.9-8.4,15.7-15.8,12.1-6,21.8-4.4,23.5-.7,2.4,5.3-5.2,15-17.8,16.5-4.8.5-7.3-1.3-8-2s-.8-.8-1-.6c-.4.2-.1.9,0,1.3a7.57,7.57,0,0,0,4.5,3.6c2.3.8,7.9,1.2,14.8-1.5,7.6-3,13.6-11.2,11.8-18-1.8-7-13.4-9.3-24.3-5.4-6.5,2.3-13.6,6-18.6,10.7-6,5.6-7,10.6-6.6,12.6,1.4,7.3,11.5,12,15.5,15.6l-.6.3c-2,1-9.7,5-11.6,9.2-2.2,4.8.3,8.3,2,8.7a12.27,12.27,0,0,0,13.3-5.4c2.8-4.3,2.5-9.8,1.2-12.3a.1.1,0,0,0-.1-.1c.5-.3,1.1-.6,1.6-.9a28.81,28.81,0,0,1,2.9-1.6,19.14,19.14,0,0,0-1,5.3c-.2,2.7.9,6.3,2.4,7.6a2.52,2.52,0,0,0,1.9.6c1.7,0,2.5-1.4,3.3-3.1,1-2.1,2-4.4,2-4.4s-1.2,6.5,2,6.5c1.2,0,2.3-1.5,2.8-2.3h0l.1-.2a1.24,1.24,0,0,1,.2-.3h0q.75-1.2,3-5.7c2-3.9,3.9-8.9,3.9-8.9a29,29,0,0,0,.8,3.2,20.31,20.31,0,0,0,1.7,3.7c-.5.6-.8,1-.8,1h0l-1.2,1.5c-1.6,1.9-3.5,4-3.7,4.7a1.34,1.34,0,0,0,.3,1.7,2.85,2.85,0,0,0,1.9.3,7.08,7.08,0,0,0,2.9-.7,10,10,0,0,0,2.5-1.3,5.41,5.41,0,0,0,2.4-4.9,8.65,8.65,0,0,0-.9-3.5c.1-.2.3-.4.4-.6a73.55,73.55,0,0,0,4.3-7.5,29,29,0,0,0,.8,3.2,28.4,28.4,0,0,0,1.4,3.2,13.36,13.36,0,0,0-4.2,5.5c-.9,2.6-.2,3.8,1.1,4.1a5.22,5.22,0,0,0,2.1-.4,10,10,0,0,0,2.7-1.4,6,6,0,0,0,3-4.9,7.27,7.27,0,0,0-.7-2.9,15,15,0,0,1,7.7-.9c6.9.8,8.2,5.1,8,6.9a4.66,4.66,0,0,1-2.2,3.1c-.5.3-.6.4-.6.6s.3.3.7.2A5.51,5.51,0,0,0,210,82c.8-4.4-3.3-9.1-10.5-9Z" transform="translate(-23 -38.7)"/><path d="M55.3,38.8c-.1,0-.6.1-1,.1a34.59,34.59,0,0,0-31,29.4,24.81,24.81,0,0,0-.3,5,24.31,24.31,0,0,0,.3,5A34.57,34.57,0,0,0,47,106.2a37.62,37.62,0,0,0,7.3,1.5c1,.1,5.6.1,6.6,0a36.93,36.93,0,0,0,12.5-3.6c.6-.3.7-.4.6-.5s-2.6-3.4-5.6-7.6l-5.5-7.5L56,78.2C52.2,72.6,49,68,49,68s-.1,4.6-.1,10.1c0,9.7,0,10.1-.1,10.4s-.3.5-.6.6-.4.1-1.4.1H45.6l-.3-.2a1.21,1.21,0,0,1-.5-.5l-.1-.3V61l.2-.3a2.18,2.18,0,0,1,.5-.4,4.58,4.58,0,0,1,1.6-.1c1.4,0,1.6.1,2,.4.1.1,3.9,5.8,8.3,12.6S67.9,89.3,70.9,93.9l5.5,8.3.3-.2a34.75,34.75,0,0,0,7.1-6.2,33.54,33.54,0,0,0,8.1-17.7,24.81,24.81,0,0,0,.3-5,24.31,24.31,0,0,0-.3-5A34.57,34.57,0,0,0,68.2,40.2,38.16,38.16,0,0,0,61,38.7c-.7.1-5.2.1-5.7.1ZM69.4,59.7a1.78,1.78,0,0,1,.7.8c.1.2.1,3.9.1,12.4V85.1L68,81.8l-2.2-3.3V69.7c0-5.7,0-8.9.1-9.1a1.27,1.27,0,0,1,.7-.9,3,3,0,0,1,1.4-.2A4.88,4.88,0,0,1,69.4,59.7Z" transform="translate(-23 -38.7)"/><path d="M129,130.3,111.5,93.2a3,3,0,0,0-2.4-1.6,2.82,2.82,0,0,0-2.6,1.3l-19,30.7a2.89,2.89,0,0,0,0,3.1L96.8,141a2.9,2.9,0,0,0,3.3,1.2l26.9-8a3,3,0,0,0,1.9-1.6,2.66,2.66,0,0,0,.1-2.3Zm-4,1.6-22.8,6.7a.93.93,0,0,1-1.2-1.1l8.2-39a.83.83,0,0,1,1.5-.2l15.1,32a1.39,1.39,0,0,1,0,.9,1.34,1.34,0,0,1-.8.7Z" transform="translate(-23 -38.7)"/><image class="cls-2" width="120" height="120" transform="translate(1.38 103.54) scale(0.55)" xlink:href="../../../../../assets/PostgreSQL_logo.3colors.120x120.png"/><image class="cls-2" width="128" height="128" transform="translate(125.17 92.02) scale(0.54)" xlink:href="../../../../../assets/typescript-design-assets/ts-logo-128.png"/></svg>